<svg version="1.1" id="Layer_1" xmlns="http://www.w3.org/2000/svg" xmlns:xlink="http://www.w3.org/1999/xlink" x="0px" y="0px"
	 width="100%" viewBox="0 0 128 128" enable-background="new 0 0 128 128" xml:space="preserve">
<path fill="#000000" opacity="1.000000" stroke="none" 
	d="
M90.000000,129.000000 
	C60.000000,129.000000 30.500000,129.000000 1.000000,129.000000 
	C1.000000,86.333336 1.000000,43.666668 1.000000,1.000000 
	C43.666668,1.000000 86.333336,1.000000 129.000000,1.000000 
	C129.000000,43.666668 129.000000,86.333336 129.000000,129.000000 
	C116.166664,129.000000 103.333336,129.000000 90.000000,129.000000 
M54.665798,17.997395 
	C31.817421,22.135910 12.008011,45.739307 16.925245,72.551590 
	C21.265059,96.215355 42.268021,114.967415 70.774574,111.685905 
	C72.597832,104.956093 74.442993,98.145447 76.428391,90.817146 
	C57.513836,94.973839 46.232002,90.704033 38.914375,77.557671 
	C33.726036,68.236641 35.954170,54.646481 42.018482,47.383907 
	C51.791992,35.679237 66.619377,34.464039 77.347733,40.068230 
	C88.265594,45.771420 94.032349,58.513191 91.430992,72.492470 
	C96.693672,69.590508 101.452240,66.470154 106.604950,64.274948 
	C111.104675,62.357929 111.745850,58.999123 110.927170,55.268925 
	C105.207581,29.208384 80.680412,13.671467 54.665798,17.997395 
M86.025162,83.739853 
	C83.437164,92.396645 80.849167,101.053429 78.077713,110.323875 
	C97.656311,103.332848 108.278580,89.876007 112.065491,69.000916 
	C102.921349,74.030319 94.689941,78.557701 86.025162,83.739853 
z"/>
<path fill="#91C2DC" opacity="1.000000" stroke="none" 
	d="
M55.105743,17.996925 
	C80.680412,13.671467 105.207581,29.208384 110.927170,55.268925 
	C111.745850,58.999123 111.104675,62.357929 106.604950,64.274948 
	C101.452240,66.470154 96.693672,69.590508 91.430992,72.492470 
	C94.032349,58.513191 88.265594,45.771420 77.347733,40.068230 
	C66.619377,34.464039 51.791992,35.679237 42.018482,47.383907 
	C35.954170,54.646481 33.726036,68.236641 38.914375,77.557671 
	C46.232002,90.704033 57.513836,94.973839 76.428391,90.817146 
	C74.442993,98.145447 72.597832,104.956093 70.774574,111.685905 
	C42.268021,114.967415 21.265059,96.215355 16.925245,72.551590 
	C12.008011,45.739307 31.817421,22.135910 55.105743,17.996925 
z"/>
<path fill="#F48C8A" opacity="1.000000" stroke="none" 
	d="
M86.241852,83.412476 
	C94.689941,78.557701 102.921349,74.030319 112.065491,69.000916 
	C108.278580,89.876007 97.656311,103.332848 78.077713,110.323875 
	C80.849167,101.053429 83.437164,92.396645 86.241852,83.412476 
z"/>
</svg>