<svg version="1.2" xmlns="http://www.w3.org/2000/svg" viewBox="0 0 128 128" width="128" height="128"><style>.a{fill:#91c2dc}.b{fill:#f48c8a}</style><path class="a" d="m55.1 18c25.6-4.3 50.1 11.2 55.8 37.3 0.8 3.7 0.2 7.1-4.3 9-5.1 2.2-9.9 5.3-15.2 8.2 2.6-14-3.1-26.7-14.1-32.4-10.7-5.6-25.5-4.4-35.3 7.3-6 7.2-8.3 20.8-3.1 30.2 7.3 13.1 18.6 17.4 37.5 13.2-2 7.3-3.8 14.2-5.6 20.9-28.5 3.3-49.5-15.5-53.9-39.1-4.9-26.9 14.9-50.5 38.2-54.6z"/><path class="b" d="m86.2 83.4c8.5-4.8 16.7-9.4 25.9-14.4-3.8 20.9-14.4 34.3-34 41.3 2.7-9.2 5.3-17.9 8.1-26.9z"/></svg>